<svg viewBox="0 0 24 25" xmlns="http://www.w3.org/2000/svg"><path d="M15.491 3.982c-.486.131-.539.175-2.411 2.041-7.238 7.215-9.92 9.924-9.997 10.097-.078.173-.081.26-.082 2.383-.001 2.49 0 2.5.274 2.748.28.253.237.249 2.705.249 2.156 0 2.246-.003 2.411-.08.125-.059 1.714-1.624 5.971-5.88 3.191-3.19 5.854-5.882 5.919-5.983.211-.327.289-.611.289-1.057 0-.446-.077-.729-.288-1.057-.065-.101-.799-.861-1.63-1.689-1.598-1.591-1.664-1.645-2.16-1.774a2.27 2.27 0 0 0-1.001.002M17.29 7.19c.698.698 1.27 1.288 1.27 1.31 0 .022-.576.616-1.28 1.32L16 11.1l-1.28-1.28c-.704-.704-1.28-1.298-1.28-1.32 0-.039 2.521-2.58 2.56-2.58.011 0 .591.571 1.29 1.27m-4 4c.698.698 1.27 1.288 1.27 1.31 0 .022-1.571 1.611-3.491 3.53l-3.49 3.49H5V16.9l3.49-3.49A438.03 438.03 0 0 1 12 9.92c.011 0 .591.571 1.29 1.27" fill-rule="evenodd" /></svg>