<svg viewBox="0 0 24 24" fill="none" xmlns="http://www.w3.org/2000/svg"><path d="M9.207 2.043A8.055 8.055 0 0 0 4.9 3.847a7.857 7.857 0 0 0-2.1 2.682 7.993 7.993 0 0 0 .989 8.511c.286.354.972 1.027 1.311 1.286a8.039 8.039 0 0 0 6.52 1.507c.961-.196 2.097-.679 2.88-1.225l.4-.279 2.78 2.772c1.947 1.941 2.833 2.797 2.957 2.86.353.176.717.087 1.064-.26.347-.347.436-.711.26-1.064-.063-.124-.919-1.01-2.86-2.957l-2.772-2.78.279-.4c.153-.22.401-.646.55-.947a7.93 7.93 0 0 0 .042-7.024 7.857 7.857 0 0 0-2.1-2.682c-1.618-1.354-3.762-2.01-5.893-1.804m1.357 1.996a5.991 5.991 0 0 1 5.107 4.021c.497 1.457.397 3.191-.261 4.52-.86 1.736-2.354 2.898-4.25 3.305-.606.13-1.714.13-2.32 0-1.899-.407-3.389-1.566-4.25-3.305-.658-1.329-.758-3.063-.261-4.52a5.892 5.892 0 0 1 1.402-2.255 5.918 5.918 0 0 1 4.833-1.766" fill-rule="evenodd" fill="#000"/></svg>