<svg viewBox="0 0 24 24" fill="none" xmlns="http://www.w3.org/2000/svg"><path d="M17.358 2.061c-1.128.176-2.215.913-2.789 1.892a3.886 3.886 0 0 0-.554 2.187c.012.264.034.529.048.588.025.107.012.114-2.503 1.372L9.032 9.364l-.206-.195c-.646-.611-1.397-.986-2.221-1.111a3.416 3.416 0 0 0-1.21 0c-2.24.338-3.763 2.505-3.312 4.715a3.973 3.973 0 0 0 2.429 2.931 3.969 3.969 0 0 0 2.976 0c.525-.212.872-.439 1.338-.875l.206-.193L11.56 15.9c2.515 1.258 2.528 1.265 2.503 1.372a5.799 5.799 0 0 0-.048.588c-.019.398-.008.552.064.899.281 1.364 1.165 2.434 2.433 2.945a3.988 3.988 0 0 0 5.192-2.216 3.963 3.963 0 0 0 .001-2.972 4.024 4.024 0 0 0-2.46-2.312A5.111 5.111 0 0 0 18 14c-.322 0-.951.103-1.245.204a4.47 4.47 0 0 0-1.581.965l-.206.195-2.526-1.263-2.527-1.263.033-.189c.041-.244.041-1.054 0-1.298l-.033-.189 2.527-1.263 2.526-1.263.206.193c.466.436.813.663 1.338.875a3.988 3.988 0 0 0 5.192-2.216 3.963 3.963 0 0 0 .001-2.972 3.978 3.978 0 0 0-3.1-2.458 3.728 3.728 0 0 0-1.247.003m1.165 2.012a2.011 2.011 0 0 1 1.27 2.807c-.155.318-.566.745-.863.895a2.07 2.07 0 0 1-1.422.165c-.685-.178-1.259-.746-1.435-1.417a2.001 2.001 0 0 1 2.45-2.45m-12 6a2.011 2.011 0 0 1 1.444 1.617c.1.653-.094 1.243-.564 1.714C7.002 13.807 6.547 14 6 14c-.515 0-.962-.178-1.347-.535-1.33-1.236-.464-3.46 1.347-3.46.143 0 .378.031.523.068m12 6a2.011 2.011 0 0 1 1.444 1.617c.1.653-.094 1.243-.564 1.714-.401.403-.856.596-1.403.596-.515 0-.962-.178-1.347-.535-1.33-1.236-.464-3.46 1.347-3.46.143 0 .378.031.523.068" fill-rule="evenodd" fill="#000"/></svg>