<svg viewBox="0 0 24 24" fill="none" xmlns="http://www.w3.org/2000/svg"><path d="M15.764 5.582a3.525 3.525 0 0 0-2.701 2.777c-.311 1.638.607 3.286 2.173 3.899a3.541 3.541 0 0 0 2.528 0 3.536 3.536 0 0 0 2.001-2.008l.095-.25h.68c.374 0 .745-.019.825-.041a.842.842 0 0 0 .515-.401c.087-.156.1-.226.099-.558-.001-.313-.017-.409-.089-.547-.193-.364-.46-.453-1.367-.453h-.663l-.095-.25c-.409-1.086-1.395-1.926-2.547-2.17-.347-.073-1.111-.072-1.454.002m1.283 2.033c.682.281 1.037.929.913 1.666-.149.88-1.125 1.435-1.969 1.12-1.287-.482-1.312-2.262-.038-2.786.317-.13.777-.13 1.094 0m-14.433.442a.814.814 0 0 0-.505.396c-.074.139-.089.231-.089.547 0 .331.013.403.1.558.11.197.294.34.515.401.198.055 7.532.055 7.73 0a.842.842 0 0 0 .515-.401c.087-.156.1-.226.099-.558-.001-.433-.081-.645-.301-.801-.283-.202-.229-.199-4.194-.196-2.923.002-3.739.013-3.87.054m4.15 3.525c-1.138.247-2.123 1.091-2.529 2.168L4.14 14h-.663c-.907 0-1.173.088-1.368.453-.074.139-.089.231-.089.547 0 .331.013.403.1.558.11.197.294.34.515.401.08.022.451.041.825.041h.68l.095.25a3.536 3.536 0 0 0 2.001 2.008 3.541 3.541 0 0 0 2.528 0A3.53 3.53 0 0 0 11 15c0-1.636-1.174-3.079-2.782-3.42-.347-.073-1.111-.072-1.454.002m1.283 2.033c.682.281 1.037.929.913 1.666-.117.691-.739 1.203-1.46 1.203-.719 0-1.338-.507-1.461-1.197-.17-.948.506-1.765 1.461-1.765.244 0 .374.022.547.093m5.567.442a.814.814 0 0 0-.505.396c-.074.139-.089.231-.089.547 0 .331.013.403.1.558.11.197.294.34.515.401.198.055 7.532.055 7.73 0a.842.842 0 0 0 .515-.401c.087-.156.1-.226.099-.558-.001-.433-.081-.645-.301-.801-.283-.202-.229-.199-4.194-.196-2.923.002-3.739.013-3.87.054" fill-rule="evenodd" fill="#000"/></svg>