<svg viewBox="0 0 24 24" fill="none" xmlns="http://www.w3.org/2000/svg"><path d="M3.614 6.057a.814.814 0 0 0-.505.396c-.074.139-.089.231-.089.547 0 .331.013.403.1.558.11.197.294.34.515.401.199.056 12.531.056 12.73 0a.842.842 0 0 0 .515-.401c.087-.156.1-.226.099-.558-.001-.433-.081-.645-.301-.801-.29-.207-.036-.199-6.694-.196-4.975.002-6.237.013-6.37.054m14 4a.814.814 0 0 0-.505.396l-.089.167-.011 2.977-.011 2.976-.729-.721c-.413-.409-.802-.758-.897-.807-.351-.177-.732-.087-1.073.254-.347.347-.436.712-.259 1.064.059.117.595.688 1.595 1.699.828.837 1.539 1.572 1.581 1.635.102.153.546.352.784.352s.682-.199.784-.352c.042-.063.753-.798 1.581-1.635 1-1.011 1.536-1.582 1.595-1.699.177-.352.088-.717-.259-1.064-.341-.341-.722-.431-1.073-.254-.095.049-.484.398-.897.807l-.729.721-.011-2.977-.011-2.976-.089-.167a.874.874 0 0 0-.213-.254c-.264-.189-.721-.249-1.064-.142m-14 1a.814.814 0 0 0-.505.396c-.074.139-.089.231-.089.547 0 .331.013.403.1.558.11.197.294.34.515.401.199.055 9.531.055 9.73 0a.842.842 0 0 0 .515-.401c.087-.156.1-.226.099-.558-.001-.433-.081-.645-.301-.801-.286-.204-.152-.199-5.194-.196-3.744.002-4.738.013-4.87.054m0 5a.814.814 0 0 0-.505.396c-.074.139-.089.231-.089.547 0 .331.013.403.1.558.11.197.294.34.515.401.197.055 6.533.055 6.73 0a.842.842 0 0 0 .515-.401c.087-.156.1-.226.099-.558-.001-.433-.081-.645-.301-.801-.28-.2-.267-.199-3.694-.196-2.512.002-3.24.014-3.37.054" fill-rule="evenodd" fill="#000"/></svg>