<svg viewBox="0 0 24 24" xmlns="http://www.w3.org/2000/svg"><path d="M11.207 2.043C9.717 2.187 8.13 2.834 7 3.759 5.287 5.16 4.247 7.096 4.041 9.266 4.019 9.505 4 10.571 4 11.635v1.935l-.331.347c-.543.571-.671.925-.667 1.84.003.595.075.922.279 1.26.167.277.506.601.79.755.38.205.597.227 2.339.227L8 18v.11c.001.225.119.888.203 1.135.335.984 1.058 1.831 1.957 2.291.451.231.77.335 1.235.406.484.072.726.072 1.21 0 1.469-.222 2.705-1.266 3.192-2.697.084-.247.202-.91.203-1.135V18l1.59-.001c1.74 0 1.956-.021 2.341-.227.268-.143.698-.573.841-.841.155-.29.226-.672.227-1.214.002-.871-.135-1.239-.669-1.8L20 13.57v-1.935c0-1.064-.019-2.133-.041-2.375a8.033 8.033 0 0 0-3.579-5.951c-1.486-.98-3.367-1.44-5.173-1.266M13.18 4.12c2.388.508 4.169 2.287 4.704 4.7.084.381.089.517.113 2.84.024 2.378.027 2.445.111 2.653.102.251.317.537.65.866l.242.238V16H5v-.571l.317-.33c.174-.182.365-.406.423-.499.242-.384.234-.287.262-2.94.025-2.318.03-2.46.115-2.84.399-1.803 1.509-3.288 3.073-4.111a6.102 6.102 0 0 1 1.967-.65c.49-.081 1.5-.05 2.023.061M14 18.124c0 .185-.112.583-.229.813-.133.263-.575.703-.841.838A2.1 2.1 0 0 1 12 20c-.546 0-1.001-.193-1.404-.596-.363-.362-.596-.861-.596-1.272V18h4v.124" fill-rule="evenodd" /></svg>