<svg viewBox="0 0 24 24" xmlns="http://www.w3.org/2000/svg"><path d="M11.08 2.045c-1.874.165-3.723.904-5.28 2.109-.437.339-1.307 1.209-1.646 1.646-1.8 2.326-2.505 5.195-1.976 8.046.29 1.566.959 3.04 1.976 4.354.339.437 1.209 1.307 1.646 1.646 2.441 1.889 5.453 2.566 8.44 1.895 2.487-.559 4.752-2.144 6.145-4.301.806-1.247 1.283-2.527 1.521-4.08.098-.641.098-2.079 0-2.72-.285-1.858-.936-3.388-2.06-4.84-.339-.437-1.209-1.307-1.646-1.646-2.067-1.599-4.554-2.336-7.12-2.109m-.071 6.185.011 4.15.1.175c.055.096.166.222.247.28.08.058 1.257 1.311 2.615 2.785l2.568 2.788.1.107-.343.224a9.053 9.053 0 0 1-.836.461c-2.73 1.319-5.938.984-8.371-.874-.339-.259-1.025-.932-1.311-1.286A7.99 7.99 0 0 1 4.8 8.529a7.375 7.375 0 0 1 1.459-2.083 7.545 7.545 0 0 1 2.238-1.63c.736-.36 1.91-.723 2.372-.733l.129-.003.011 4.15m2.603-4.066a8.3 8.3 0 0 1 3.428 1.625c.354.286 1.027.972 1.286 1.311a8.467 8.467 0 0 1 1.269 2.4c.156.479.325 1.203.325 1.398V11H13V4.08h.102c.057 0 .286.038.51.084m6.308 8.938c0 .426-.371 1.649-.72 2.369-.309.641-.969 1.649-1.079 1.649-.035 0-3.801-4.061-3.801-4.099 0-.012 1.26-.021 2.8-.021h2.8v.102" fill-rule="evenodd" /></svg>