<svg viewBox="0 0 24 24" fill="none" xmlns="http://www.w3.org/2000/svg"><path d="M11.08 2.045A10.098 10.098 0 0 0 6.54 3.63a9.034 9.034 0 0 0-1.621 1.328 9.852 9.852 0 0 0-2.906 7.362c.071 2.119.739 4.008 2.02 5.72.397.53 1.272 1.424 1.767 1.807 1.442 1.114 2.987 1.777 4.8 2.06.647.101 2.153.101 2.8 0 2.238-.35 4.104-1.287 5.662-2.845 1.558-1.558 2.495-3.424 2.845-5.662.101-.647.101-2.153 0-2.8-.283-1.814-.948-3.362-2.06-4.8-.337-.435-1.208-1.306-1.647-1.646-2.067-1.599-4.554-2.336-7.12-2.109m1.654 1.996a7.925 7.925 0 0 1 4.82 2.215 7.979 7.979 0 0 1 1.629 9.243 7.827 7.827 0 0 1-1.687 2.302 7.485 7.485 0 0 1-2.025 1.399 7.941 7.941 0 0 1-6.942 0 7.857 7.857 0 0 1-2.682-2.1c-1.999-2.389-2.407-5.798-1.031-8.6a7.98 7.98 0 0 1 7.104-4.495c.209-.002.575.014.814.036m-1.12 3.016a.814.814 0 0 0-.505.396c-.087.164-.089.197-.101 1.857L10.997 11H9.405c-1.695 0-1.821.012-2.083.199-.222.158-.302.369-.302.801 0 .331.013.403.1.558.11.197.294.34.515.401.086.024.8.041 1.755.041H11v1.61c0 .955.017 1.669.041 1.755.107.385.396.597.855.626.485.031.803-.109.984-.433l.1-.178.012-1.69.012-1.69h1.608c.954 0 1.667-.017 1.753-.041a.842.842 0 0 0 .515-.401c.087-.156.1-.226.099-.558-.001-.433-.081-.645-.301-.801-.262-.187-.388-.199-2.082-.199h-1.592l-.012-1.69c-.012-1.659-.014-1.693-.101-1.857a.874.874 0 0 0-.213-.254c-.264-.189-.721-.249-1.064-.142" fill-rule="evenodd" fill="#000"/></svg>