<svg viewBox="0 0 24 24" xmlns="http://www.w3.org/2000/svg"><path d="M11.686 2.364c-.32.04-.678.207-.986.458-.132.107-1.815 1.575-3.74 3.261C4.537 8.206 3.42 9.21 3.33 9.345c-.071.108-.17.303-.22.435l-.09.24-.011 4.58c-.013 5.117-.023 4.915.262 5.398.173.293.506.615.8.774.397.215.549.227 2.929.227 2.379 0 2.528-.012 2.931-.227.268-.143.698-.573.841-.841.214-.4.227-.56.227-2.841L11 15h2l.002 2.13c.002 1.88.011 2.161.071 2.393.18.689.787 1.272 1.476 1.418.396.084 4.506.084 4.902 0 .37-.078.64-.232.952-.54a1.87 1.87 0 0 0 .557-1.041c.03-.178.04-1.697.032-4.8l-.012-4.54-.09-.24a2.683 2.683 0 0 0-.22-.435c-.09-.135-1.207-1.139-3.63-3.262a641.69 641.69 0 0 0-3.732-3.255c-.497-.404-.99-.545-1.622-.464m3.852 5.061L19 10.455V19h-4l-.001-2.09c0-2.283-.013-2.444-.227-2.839-.256-.472-.75-.868-1.249-.998-.389-.101-2.657-.101-3.046 0-.489.128-.931.47-1.212.941-.255.425-.265.534-.265 2.884V19H5v-8.545l3.485-3.05c1.995-1.745 3.508-3.041 3.538-3.029.029.011 1.611 1.383 3.515 3.049" fill-rule="evenodd" /></svg>