<svg viewBox="0 0 24 24" xmlns="http://www.w3.org/2000/svg"><path d="M4.619 6.053c-.244.081-.371.18-.491.383-.097.166-.108.222-.107.564.001.505.105.717.439.893.13.069.23.085.54.085.31 0 .41-.016.54-.085.334-.177.438-.389.438-.893s-.106-.721-.435-.888c-.199-.102-.697-.134-.924-.059m4 .003c-.241.075-.371.176-.491.38-.097.165-.108.223-.108.564 0 .343.011.398.111.569a.862.862 0 0 0 .3.3l.189.111h10.766l.195-.12c.247-.153.38-.397.408-.751.028-.344-.066-.664-.25-.847-.275-.276.023-.262-5.756-.259-4.067.002-5.238.013-5.364.053m-4 4.997c-.244.081-.371.18-.491.383-.097.166-.108.222-.107.564.001.505.105.717.439.893.231.123.849.123 1.08 0 .334-.177.438-.389.438-.893s-.106-.721-.435-.888c-.199-.102-.697-.134-.924-.059m4 .003c-.241.075-.371.176-.491.38-.097.165-.108.223-.108.564 0 .343.011.398.111.569a.862.862 0 0 0 .3.3l.189.111h10.766l.195-.12c.247-.153.38-.397.408-.751.028-.344-.066-.664-.25-.847-.275-.276.023-.262-5.756-.259-4.067.002-5.238.013-5.364.053m-4 4.997c-.244.081-.371.18-.491.383-.097.166-.108.222-.107.564.001.505.105.717.439.893.231.123.849.123 1.08 0 .334-.177.438-.389.438-.893s-.106-.721-.435-.888c-.199-.102-.697-.134-.924-.059m4 .003c-.241.075-.371.176-.491.38-.097.165-.108.223-.108.564 0 .343.011.398.111.569a.862.862 0 0 0 .3.3l.189.111h10.766l.195-.12c.247-.153.38-.397.408-.751.028-.344-.066-.664-.25-.847-.275-.276.023-.262-5.756-.259-4.067.002-5.238.013-5.364.053" fill-rule="evenodd" /></svg>