<svg viewBox="0 0 24 24" xmlns="http://www.w3.org/2000/svg"><path d="M8.569 1.443c-.139.018-.355.08-.48.137-.297.136-2.931 1.663-3.18 1.843-.234.171-.513.543-.636.848-.087.218-.092.292-.112 1.549L4.14 7.14l-.115.207a1.519 1.519 0 0 1-.22.306c-.058.055-.501.319-.985.587-.975.541-1.149.66-1.375.945-.42.53-.444.676-.444 2.735.001.913.018 1.786.04 1.94.054.388.291.859.567 1.126.203.197.354.291 1.604.991.449.252.577.344.689.496.248.339.259.413.259 1.71 0 1.063.007 1.192.081 1.432.106.341.367.721.642.932.257.198 3.008 1.79 3.297 1.909.164.067.29.082.7.083.494.001.504-.001.8-.144.165-.079.649-.354 1.075-.609.807-.484.947-.546 1.245-.546.301 0 .433.06 1.381.624.503.3.987.57 1.076.602.444.157 1.055.137 1.459-.048.287-.131 2.936-1.668 3.18-1.846.23-.166.509-.54.631-.843.087-.218.092-.292.112-1.549l.021-1.32.115-.207c.063-.114.162-.252.22-.306.058-.055.501-.319.985-.587.975-.541 1.149-.66 1.375-.945.42-.53.444-.676.444-2.735-.001-.913-.019-1.786-.041-1.94-.074-.517-.436-1.105-.838-1.36-.077-.048-.518-.3-.98-.558-.462-.258-.89-.516-.951-.574a1.51 1.51 0 0 1-.23-.343l-.119-.238V5.858c0-1.098-.007-1.233-.08-1.47a2.04 2.04 0 0 0-.624-.922c-.334-.262-3.148-1.866-3.428-1.954-.201-.064-.329-.076-.672-.063-.515.02-.63.069-1.791.765-.82.492-.946.546-1.265.544-.295-.002-.411-.056-1.41-.65-1.101-.655-1.376-.746-2.001-.665M9.78 3.961c1.132.676 1.42.776 2.24.772.822-.003 1.08-.096 2.297-.83.427-.258.805-.461.84-.451.035.009.657.36 1.383.779l1.32.762v1.193c0 1.15.004 1.204.095 1.474.183.541.481 1.043.831 1.397.246.249.573.461 1.486.963l.727.4v3.16l-.727.4c-.913.502-1.24.714-1.486.963-.35.354-.648.856-.831 1.397-.091.27-.095.324-.095 1.474v1.195l-1.34.78c-.737.43-1.358.781-1.38.782-.022 0-.391-.212-.82-.471-1.229-.743-1.477-.832-2.32-.832-.841 0-1.09.089-2.317.829-.427.258-.805.461-.84.451-.035-.009-.657-.36-1.383-.779l-1.32-.762v-1.173c0-1.3-.011-1.374-.278-1.942-.262-.555-.631-1.004-1.058-1.288a25.556 25.556 0 0 0-1-.584l-.784-.44L3.01 12 3 10.42l.728-.4c.912-.501 1.24-.714 1.486-.963.35-.354.648-.856.831-1.397.091-.27.095-.324.095-1.474V4.991l1.36-.792c1.208-.703 1.369-.786 1.44-.742l.84.504m1.62 3.083c-2.009.227-3.728 1.734-4.239 3.716-.241.933-.178 2.115.159 2.992a5.115 5.115 0 0 0 2.887 2.911c1.091.43 2.495.43 3.586 0 1.342-.528 2.43-1.641 2.906-2.975.397-1.112.383-2.416-.036-3.481-.59-1.501-1.885-2.653-3.423-3.045a5.223 5.223 0 0 0-1.84-.118m1.46 2.077c.965.3 1.721 1.06 2.026 2.039.081.258.094.379.091.86-.003.488-.016.6-.105.867a3.095 3.095 0 0 1-2.032 1.999c-.252.078-.387.093-.84.093-.453 0-.588-.015-.84-.093a3.086 3.086 0 0 1-2.046-2.046c-.135-.434-.135-1.246 0-1.68.341-1.094 1.259-1.921 2.357-2.121.326-.06 1.075-.016 1.389.082" fill-rule="evenodd" /></svg>