<svg viewBox="0 0 24 24" xmlns="http://www.w3.org/2000/svg"><path d="M4.477 2.073c-.683.179-1.265.78-1.418 1.465-.057.256-.062.703-.048 4.005.017 3.901.021 3.983.208 4.997a11.923 11.923 0 0 0 1.149 3.3 16.06 16.06 0 0 0 1.216 1.84c.364.457 1.422 1.508 1.916 1.904.87.697 1.79 1.283 2.76 1.758 1.626.796 1.854.796 3.48 0a13.67 13.67 0 0 0 3.783-2.7c.718-.717 1.019-1.082 1.535-1.862 1.048-1.583 1.58-3.059 1.867-5.18.065-.477.097-7.597.036-7.958-.122-.728-.721-1.382-1.438-1.569-.244-.063-.789-.068-7.523-.068s-7.279.005-7.523.068M19 7.35c0 3.968-.017 4.236-.337 5.504-.629 2.494-2.347 4.674-4.883 6.197-.654.392-1.609.847-1.78.847-.171 0-1.126-.455-1.78-.847-2.552-1.532-4.263-3.715-4.9-6.251-.3-1.191-.32-1.528-.32-5.45V4h14v3.35m-4.38.696c-.095.049-.867.788-1.889 1.807l-1.73 1.724-.73-.723c-.415-.41-.804-.76-.899-.809-.351-.177-.732-.087-1.073.254-.34.34-.431.721-.255 1.073.115.228 2.356 2.469 2.584 2.584a.873.873 0 0 0 .744 0c.233-.116 4.468-4.351 4.584-4.584.176-.353.085-.733-.255-1.073-.34-.34-.734-.432-1.081-.253" fill-rule="evenodd" /></svg>