<svg viewBox="0 0 24 24" xmlns="http://www.w3.org/2000/svg"><path d="M9.619 3.056c-.241.075-.371.176-.491.38-.104.178-.108.208-.122.873l-.014.689-3.167.011-3.167.011-.199.102a.76.76 0 0 0-.319.297c-.112.181-.12.222-.12.578 0 .347.011.401.111.572a.862.862 0 0 0 .3.3l.189.111 3.186.011 3.186.011.014.689c.014.669.017.694.125.878a.862.862 0 0 0 .3.3c.171.1.225.111.572.111.356 0 .397-.008.578-.12a.76.76 0 0 0 .297-.319l.102-.199.011-2.256c.013-2.53.01-2.562-.252-2.824-.234-.235-.735-.327-1.12-.206m4 2c-.241.075-.371.176-.491.38-.097.165-.108.223-.108.564 0 .343.011.398.111.569a.862.862 0 0 0 .3.3l.189.111h7.766l.195-.12c.247-.153.38-.397.408-.751.028-.344-.066-.664-.25-.847-.27-.27-.137-.262-4.256-.259-2.86.002-3.74.014-3.864.053m2 4c-.241.075-.371.176-.491.38-.104.178-.108.208-.122.874l-.014.689-6.167.011-6.167.01-.199.102a.76.76 0 0 0-.319.297c-.112.181-.12.222-.12.578 0 .347.011.401.111.572a.862.862 0 0 0 .3.3l.189.111 6.186.011 6.186.01.014.69c.014.669.017.694.125.878a.862.862 0 0 0 .3.3c.171.1.225.111.572.111.356 0 .397-.008.578-.12a.76.76 0 0 0 .297-.319l.102-.199.011-2.256c.013-2.53.01-2.562-.252-2.824-.234-.235-.735-.327-1.12-.206m4 2c-.241.075-.371.176-.491.38-.097.165-.108.223-.108.564 0 .343.011.398.111.569a.862.862 0 0 0 .3.3l.189.111h1.766l.195-.12c.247-.153.38-.397.408-.751.043-.533-.18-.924-.596-1.047-.265-.079-1.528-.083-1.774-.006m-14 4c-.241.075-.371.176-.491.38-.104.178-.108.208-.122.872l-.014.688-1.167.012c-1.162.012-1.168.012-1.366.114a.76.76 0 0 0-.319.297c-.112.181-.12.222-.12.578 0 .347.011.401.111.572a.862.862 0 0 0 .3.3l.189.111 1.186.013 1.186.012.014.688c.014.667.017.692.125.876a.862.862 0 0 0 .3.3c.171.1.225.111.572.111.356 0 .397-.008.578-.12a.76.76 0 0 0 .297-.319l.102-.199.011-2.256c.013-2.53.01-2.562-.252-2.824-.234-.235-.735-.327-1.12-.206m4 2c-.241.075-.371.176-.491.38-.097.165-.108.223-.108.564 0 .343.011.398.111.569a.862.862 0 0 0 .3.3l.189.111h11.766l.195-.12c.247-.153.38-.397.408-.751.028-.344-.066-.664-.25-.847-.277-.277.077-.262-6.256-.259-4.469.002-5.738.013-5.864.053" fill-rule="evenodd" /></svg>